<?xml version="1.0" encoding="UTF-8"?>
<!DOCTYPE svg PUBLIC "-//W3C//DTD SVG 1.1//EN" "http://www.w3.org/Graphics/SVG/1.1/DTD/svg11.dtd">
<!-- Creator: CorelDRAW -->
<svg xmlns="http://www.w3.org/2000/svg" xml:space="preserve" width="210mm" height="297mm" version="1.1" style="shape-rendering:geometricPrecision; text-rendering:geometricPrecision; image-rendering:optimizeQuality; fill-rule:evenodd; clip-rule:evenodd"
viewBox="0 0 21000 29700"
 xmlns:xlink="http://www.w3.org/1999/xlink">
 <defs>
  <style type="text/css">
   <![CDATA[
    .str0 {stroke:#929392;stroke-width:5.66}
    .str2 {stroke:#939393;stroke-width:5.66}
    .str1 {stroke:#F7BE7F;stroke-width:5.66}
    .fil0 {fill:none}
    .fil1 {fill:#262726}
    .fil3 {fill:#F07D00}
    .fil2 {fill:white}
   ]]>
  </style>
 </defs>
 <g id="Layer_x0020_1">
  <metadata id="CorelCorpID_0Corel-Layer"/>
  <g id="Institut_x0020_Teknologi_x0020_Nasional_x0020_Bandung.cdr">
   <path class="fil0 str0" d="M10923 7596l-3277 3283c-10,10 -10,26 0,35l3275 3277c5,6 15,6 21,0l3281 -3283c7,-7 7,-18 0,-25l-3289 -3287"/>
   <path class="fil0 str0" d="M24393 21169l-205 -10c-10,-1 -17,7 -17,17l0 1712c0,11 5,16 15,16l207 2"/>
   <path class="fil0 str0" d="M13987 23476c192,-38 356,-144 356,-353 0,-149 -100,-254 -237,-294 -102,-30 -206,-56 -313,-78 -40,-9 -77,-24 -109,-47 -29,-20 -33,-62 -9,-88 17,-18 38,-29 65,-34 172,-29 348,-50 442,-218 83,-146 68,-281 -43,-406 -8,-9 -2,-22 9,-22l170 1c17,0 26,-9 26,-26l0 -131c0,-17 -8,-25 -25,-26 -260,-1 -430,-1 -512,1 -268,9 -484,189 -431,477 22,121 92,209 212,267 13,6 13,12 0,19 -73,39 -154,76 -150,171 2,50 53,90 88,120 14,12 12,20 -6,25 -167,45 -252,141 -254,289 -4,213 176,302 350,353"/>
   <path class="fil0 str0" d="M-2440 22904l237 -2c9,-1 14,-5 14,-15l0 -1705c0,-13 -10,-23 -22,-22l-229 3"/>
   <path class="fil0 str1" d="M2296 14822c0,-350 -283,-633 -633,-633 -350,0 -634,283 -634,633 0,350 284,634 634,634 350,0 633,-284 633,-634"/>
   <path class="fil0 str0" d="M3325 16722c0,546 0,1149 0,1809 0,148 9,292 22,438 37,385 234,665 593,841 185,91 405,133 657,127 319,-8 609,-83 870,-225 10,-5 18,-12 27,-19 10,-9 15,-20 15,-34 -2,-239 -2,-464 0,-676 0,-6 -7,-10 -13,-7 -274,166 -595,287 -903,271 -375,-19 -502,-309 -502,-651 0,-608 0,-1233 0,-1874 0,-11 9,-20 19,-20l1193 1c3,0 6,-3 6,-6l1 -661c0,-16 -8,-24 -24,-24l-1174 -2c-15,0 -22,-7 -22,-21l1 -764c0,-4 -5,-6 -7,-4 -469,456 -936,915 -1401,1377 -25,25 -37,48 -35,71 1,22 13,33 35,33l624 1c12,0 18,6 18,19"/>
   <path class="fil0 str0" d="M6629 18031c0,-10 8,-18 18,-18l2680 0c7,0 13,-5 13,-12 3,-386 -41,-771 -201,-1121 -182,-399 -507,-729 -925,-859 -384,-120 -774,-116 -1170,12 -505,162 -890,599 -1060,1096 -120,349 -148,735 -105,1102 57,486 257,897 599,1233 186,181 423,325 674,392 343,91 711,89 1067,46 361,-44 708,-177 1039,-399 10,-7 14,-16 14,-28l0 -721c0,-7 -7,-10 -13,-7 -420,307 -877,462 -1369,464 -668,3 -1156,-396 -1248,-1074 -4,-35 -13,-72 -13,-106"/>
   <path class="fil0 str0" d="M10930 16473c-5,0 -7,-5 -7,-13 3,-131 3,-275 2,-433 0,-9 -8,-16 -17,-16l-745 -1c-13,0 -20,7 -20,20l0 3836c0,4 4,7 8,7l754 0c14,0 21,-7 21,-21l0 -2717c0,-8 2,-17 7,-24 172,-260 443,-476 759,-520 304,-43 666,26 804,339 80,182 120,389 121,623 3,762 3,1530 2,2304 0,9 7,16 16,16l734 0c12,0 17,-6 17,-18 -1,-740 -1,-1484 1,-2233 1,-232 -15,-448 -58,-666 -88,-457 -393,-805 -826,-950 -569,-191 -1146,20 -1548,459 -6,7 -16,10 -25,8"/>
   <path class="fil0 str0" d="M16087 19568c8,-7 21,-2 24,8 58,204 200,321 428,351 189,26 362,3 520,-67 125,-55 247,-124 366,-206 6,-4 10,-11 10,-19l-2 -444c0,-8 -9,-13 -15,-8 -124,96 -247,161 -370,194 -143,39 -181,-99 -181,-206 -1,-610 -1,-1257 -1,-1941 0,-291 -32,-530 -209,-781 -247,-351 -666,-498 -1094,-512 -508,-16 -1001,117 -1342,505 -8,10 -13,23 -13,36l-1 782c0,33 12,38 34,13 198,-216 403,-376 613,-480 432,-212 1166,-252 1248,391 15,113 20,231 15,355 0,7 -4,12 -11,14 -361,120 -707,240 -1039,359 -480,171 -923,530 -933,1064 -6,356 159,661 464,836 458,262 1104,61 1489,-244"/>
   <path class="fil0 str0" d="M19509 16642c279,71 557,211 812,364 11,6 17,3 17,-10l1 -726c0,-9 -5,-16 -12,-20 -439,-243 -960,-371 -1451,-289 -488,81 -900,403 -934,920 -27,411 193,727 505,964 282,215 596,387 902,565 103,59 194,128 273,205 61,59 95,138 102,236 7,106 -34,196 -122,269 -209,172 -489,186 -744,111 -317,-93 -626,-246 -924,-457 -8,-6 -20,0 -20,10l1 795c0,11 5,19 15,24 133,62 269,121 408,177 345,140 710,180 1077,147 544,-49 1072,-399 1112,-989 51,-746 -709,-1164 -1265,-1466 -104,-57 -209,-124 -314,-201 -158,-118 -309,-332 -135,-517 167,-180 471,-169 696,-112"/>
   <path class="fil0 str0" d="M2101 16018c0,-4 -3,-7 -7,-7l-752 0c-4,0 -7,3 -7,7l0 3848c0,4 3,7 7,7l752 0c4,0 7,-3 7,-7l0 -3848"/>
   <path class="fil0 str0" d="M5658 21408c5,28 7,58 7,90 -1,469 -2,936 -1,1401 0,4 3,7 7,7l243 -2c4,0 6,-2 6,-6l0 -1485c0,-22 11,-32 32,-32l563 1c5,0 8,-3 8,-8l0 -208c0,-5 -3,-8 -7,-8l-1432 2c-9,0 -13,5 -13,14l-1 197c0,6 3,8 9,8l546 2c16,0 30,12 33,27"/>
   <path class="fil0 str0" d="M7792 21176c0,-9 -7,-17 -16,-17l-197 0c-9,0 -16,8 -16,17l0 1713c0,9 7,17 16,17l197 0c9,0 16,-8 16,-17l0 -1713"/>
   <path class="fil0 str0" d="M11697 21172c0,-7 -5,-12 -12,-12l-205 0c-6,0 -12,5 -12,12l0 1721c0,7 6,13 12,13l205 0c7,0 12,-6 12,-13l0 -1721"/>
   <path class="fil0 str0" d="M16054 22905c5,0 9,-4 9,-8l-2 -1300c0,-8 9,-11 14,-5l1139 1310c1,2 4,3 6,3l206 0c5,0 8,-4 8,-8l0 -1730c0,-5 -4,-8 -8,-8l-224 0c-5,0 -9,3 -9,8l0 1313c0,7 -10,11 -14,5l-1150 -1324c-2,-1 -4,-3 -6,-3l-194 1c-5,0 -8,4 -8,8l0 1730c0,4 4,8 9,8l224 0"/>
   <path class="fil0 str0" d="M1524 21409c0,-76 -61,-137 -137,-137 -76,0 -137,61 -137,137 0,76 61,137 137,137 76,0 137,-61 137,-137"/>
   <path class="fil0 str0" d="M14774 21409c0,-76 -62,-137 -137,-137 -76,0 -137,61 -137,137 0,75 61,137 137,137 75,0 137,-62 137,-137"/>
   <path class="fil0 str0" d="M20099 21409c0,-76 -61,-138 -137,-138 -76,0 -137,62 -137,138 0,75 61,137 137,137 76,0 137,-62 137,-137"/>
   <path class="fil0 str0" d="M706 21754c-10,0 -19,-9 -19,-19l2 -198c0,-10 -12,-16 -19,-9l-411 403c-13,14 -4,37 15,36l156 -2c14,0 25,11 25,24 -1,181 -2,358 -3,531 0,87 10,156 31,208 95,231 400,235 597,140 17,-8 25,-22 25,-41l0 -169c0,-20 -8,-24 -25,-14 -103,64 -306,129 -370,-9 -18,-38 -26,-97 -24,-176 3,-160 3,-317 1,-470 0,-12 10,-22 22,-22l329 0c7,0 10,-4 10,-10l0 -192c0,-7 -3,-10 -10,-10l-332 -1"/>
   <path class="fil0 str0" d="M1862 21984c2,151 2,296 -1,435 -2,142 4,234 16,275 81,267 403,273 621,167 9,-4 15,-13 15,-22l1 -182c0,-11 -13,-19 -23,-13 -122,72 -394,149 -395,-96 -2,-188 -2,-376 -2,-565 0,-11 6,-17 17,-17l325 1c12,0 19,-6 19,-19l-1 -175c0,-13 -6,-19 -19,-19l-322 0c-13,0 -20,-7 -20,-20l3 -193c0,-19 -6,-22 -19,-9 -136,128 -273,262 -409,402 -7,6 -7,13 -3,22 4,7 11,11 18,11l161 -1c12,0 18,6 18,18"/>
   <path class="fil0 str0" d="M4236 21967l325 -1c11,0 17,-5 17,-16l-1 -178c0,-14 -7,-21 -21,-21l-322 5c-11,0 -16,-6 -16,-17l-1 -195c0,-22 -8,-25 -23,-10l-408 401c-12,12 -4,32 13,32l167 0c10,0 17,8 17,18 -5,196 -5,386 1,569 5,169 58,296 224,349 138,45 279,28 422,-49 3,-2 5,-4 5,-8l1 -208c0,-3 -3,-4 -6,-3 -74,47 -152,74 -235,80 -152,11 -182,-103 -179,-228 3,-161 3,-328 0,-500 0,-14 6,-20 20,-20"/>
   <path class="fil0 str0" d="M-1608 21857l7 -65c3,-24 -8,-37 -33,-37l-184 -2c-18,0 -27,9 -27,27l0 1119c0,5 3,8 7,7l228 -2c5,-1 7,-3 7,-8 -3,-258 -4,-518 -2,-779 0,-25 9,-47 25,-66 76,-90 167,-131 273,-124 177,13 203,190 203,338 -2,286 -3,495 -3,629 0,8 3,11 10,11l216 -1c7,0 11,-3 11,-11 -4,-206 -4,-410 -3,-609 2,-208 -17,-414 -222,-513 -174,-83 -351,-29 -492,97 -8,7 -22,1 -21,-11"/>
   <path class="fil0 str0" d="M-259 22163c-76,-41 -179,-145 -55,-208 43,-22 90,-28 139,-16 92,22 183,61 274,118 1,1 3,-1 3,-1 3,-13 4,-88 2,-223 0,-5 -3,-9 -7,-11 -180,-92 -346,-115 -495,-67 -109,35 -177,100 -204,194 -75,255 178,394 385,509 66,37 202,134 98,218 -137,112 -358,-6 -482,-96 -9,-6 -21,0 -21,11l1 210c0,12 6,22 16,27 157,86 313,116 469,90 142,-23 277,-126 294,-276 27,-250 -239,-382 -417,-479"/>
   <path class="fil0 str0" d="M6540 22356l761 0c14,0 21,-7 21,-20 4,-268 -112,-558 -414,-598 -329,-43 -575,154 -616,475 -30,234 31,462 217,606 219,169 577,121 782,-19 4,-3 6,-6 6,-10 3,-76 4,-148 3,-219 0,0 -2,-1 -3,-1 -198,126 -377,165 -536,115 -138,-43 -218,-145 -241,-306 -2,-15 4,-23 20,-23"/>
   <path class="fil0 str0" d="M9011 21851l7 -59c2,-25 -9,-37 -34,-37l-183 -1c-17,0 -26,8 -26,26l0 1115c0,7 3,10 10,10l219 0c7,0 12,-5 12,-11 -2,-264 -2,-526 0,-785 0,-17 5,-32 16,-45 74,-91 159,-137 256,-138 180,-2 225,147 225,295 -1,229 -1,451 -2,665 0,11 8,19 19,19l196 0c13,0 20,-6 20,-19 3,-235 2,-482 -3,-740 -3,-140 -48,-247 -135,-322 -169,-145 -410,-112 -566,42 -24,24 -34,19 -31,-15"/>
   <path class="fil0 str0" d="M18272 22827c58,158 272,101 376,22 8,-6 13,-16 13,-27l1 -106c0,-11 -13,-17 -22,-10 -29,24 -61,40 -95,49 -25,6 -48,-12 -48,-38 1,-202 1,-404 -1,-605 -2,-192 -88,-312 -260,-360 -166,-46 -396,-21 -519,117 -9,10 -13,21 -13,33l-1 220c0,17 6,19 16,6 98,-114 277,-214 429,-166 93,30 132,108 119,236 -1,10 -6,17 -15,19 -85,28 -176,59 -274,93 -184,65 -342,196 -289,411 68,270 395,232 564,100 9,-6 15,-5 19,6"/>
   <path class="fil0 str0" d="M19300 22681c-143,105 -361,-17 -492,-108 -1,-1 -1,1 -1,1 -3,82 -2,162 1,241 0,5 2,8 6,10 136,79 279,112 428,99 197,-16 376,-158 336,-371 -34,-184 -232,-294 -390,-376 -65,-34 -202,-134 -103,-206 56,-42 126,-49 210,-21 78,26 153,62 228,107 0,0 1,-2 1,-2 2,-19 2,-94 2,-223 0,-3 -2,-7 -5,-9 -204,-111 -530,-155 -672,64 -67,105 -47,259 42,352 104,110 252,182 380,260 67,40 101,129 29,182"/>
   <path class="fil0 str0" d="M22043 21866c-6,-23 -7,-47 -4,-73 3,-26 -8,-39 -35,-39l-173 0c-22,0 -33,11 -33,33l0 1111c0,4 2,6 6,6l225 2c5,0 9,-4 9,-8 0,-245 0,-507 0,-784 0,-49 35,-78 69,-107 100,-84 276,-128 367,-12 36,46 55,97 56,153 6,206 6,455 0,745 0,7 5,12 12,12l215 1c6,0 11,-5 11,-12 3,-258 3,-508 -2,-751 -8,-401 -432,-544 -707,-272 -8,8 -14,7 -16,-5"/>
   <path class="fil0 str0" d="M23554 22827c10,-7 24,-3 28,8 66,153 276,88 378,9 7,-5 10,-11 10,-19l4 -109c1,-13 -5,-17 -17,-11 -38,18 -88,62 -131,45 -13,-5 -22,-18 -22,-32 0,-214 -1,-420 -3,-617 -2,-188 -91,-305 -266,-350 -189,-49 -356,-14 -500,104 -16,12 -25,31 -25,51l-4 209c0,21 7,24 22,9 106,-104 269,-217 427,-162 89,30 129,107 121,231 0,11 -6,19 -17,23 -145,52 -324,92 -449,186 -116,88 -165,248 -90,379 116,204 375,163 534,46"/>
   <path class="fil0 str0" d="M1502 21770c0,-9 -7,-16 -16,-16l-197 0c-9,0 -16,7 -16,16l0 1119c0,9 7,17 16,17l197 0c9,0 16,-8 16,-17l0 -1119"/>
   <path class="fil0 str0" d="M3404 22801l-7 73c-2,21 7,31 27,31l184 0c17,1 26,-8 26,-26l0 -1105c0,-13 -7,-19 -20,-19l-192 -1c-15,-1 -23,7 -23,22 0,256 0,511 1,766 0,40 -24,64 -50,90 -80,81 -174,113 -281,96 -163,-26 -173,-211 -173,-339 0,-206 -1,-412 -2,-617 0,-10 -6,-15 -16,-16l-195 -3c-10,-1 -17,7 -17,17 2,215 3,432 1,650 -2,197 24,365 201,460 175,93 370,39 509,-92 21,-19 29,-15 27,13"/>
   <path class="fil0 str0" d="M8664 22905c9,0 13,-11 7,-18l-570 -560c-4,-4 -4,-10 0,-14l471 -542c6,-7 1,-17 -8,-17l-254 0c-3,0 -6,2 -8,4l-501 554c-3,4 -3,10 1,14l566 576c2,2 5,3 8,3l288 0"/>
   <path class="fil0 str0" d="M11223 22341c0,-327 -276,-593 -618,-594 -341,0 -619,264 -620,591 0,327 276,593 618,594 342,0 619,-264 620,-591"/>
   <path class="fil0 str0" d="M13187 22337c-1,-327 -279,-591 -621,-589 -341,1 -618,267 -616,594 1,327 279,591 621,589 341,-1 617,-267 616,-594"/>
   <path class="fil0 str0" d="M14751 21766c0,-7 -5,-12 -12,-12l-206 0c-6,0 -11,5 -11,12l0 1127c0,7 5,12 11,12l206 0c7,0 12,-5 12,-12l0 -1127"/>
   <path class="fil0 str0" d="M20075 21767c0,-7 -6,-13 -13,-13l-202 0c-7,0 -13,6 -13,13l0 1126c0,7 6,13 13,13l202 0c7,0 13,-6 13,-13l0 -1126"/>
   <path class="fil0 str0" d="M21564 22336c-2,-327 -280,-591 -621,-589 -342,2 -618,269 -616,596 2,327 280,591 622,589 341,-2 617,-269 615,-596"/>
   <path class="fil0 str2" d="M13183 10896c0,-1244 -1008,-2252 -2252,-2252 -1243,0 -2252,1008 -2252,2252 0,1244 1009,2252 2252,2252 1244,0 2252,-1008 2252,-2252"/>
   <path class="fil0 str2" d="M10900 8717l-1881 3249c-5,9 2,20 12,20l3779 0c5,0 8,-6 5,-10 -667,-1157 -1271,-2201 -1813,-3131 -26,-44 -49,-87 -67,-127 -7,-14 -27,-15 -35,-1"/>
   <path class="fil0 str0" d="M6688 17371c-9,33 -23,73 -23,107 0,13 -4,25 -11,34 -17,25 -10,37 19,37l1893 0c6,0 10,-6 10,-12 -35,-570 -367,-947 -957,-931 -480,14 -807,314 -931,765"/>
   <path class="fil0 str0" d="M15417 18246c-157,69 -339,179 -435,322 -105,159 -111,401 -21,560 74,128 173,210 300,245 279,78 572,-26 792,-214 26,-23 65,-39 65,-81 0,-364 0,-731 -1,-1100 0,-5 -4,-8 -9,-6 -248,90 -478,181 -691,274"/>
   <path class="fil0 str0" d="M6537 22214l553 -4c2,0 4,-2 4,-4l0 -2c-1,-150 -126,-270 -280,-269l-5 0c-154,1 -277,123 -276,272l0 3c0,2 1,4 4,4"/>
   <path class="fil0 str0" d="M18085 22759c63,-5 120,-30 172,-75 7,-6 11,-16 11,-26l0 -301c0,-10 -5,-14 -14,-10 -90,29 -173,65 -250,108 -157,87 -105,320 81,304"/>
   <path class="fil0 str0" d="M23361 22427c-314,135 -57,490 203,257 8,-7 11,-15 11,-25l1 -298c0,-9 -9,-16 -18,-12 -65,24 -131,49 -197,78"/>
   <path class="fil0 str0" d="M10980 22336c0,-209 -169,-379 -378,-379 -209,0 -378,170 -378,379 0,208 169,378 378,378 209,0 378,-170 378,-378"/>
   <path class="fil0 str0" d="M12941 22404c37,-204 -100,-400 -307,-438 -207,-37 -404,98 -441,302 -38,204 100,400 307,437 207,38 404,-97 441,-301"/>
   <path class="fil0 str0" d="M14020 22153c-5,-113 -107,-201 -229,-195 -123,5 -217,101 -212,214 5,114 107,201 229,196 123,-6 217,-102 212,-215"/>
   <path class="fil0 str0" d="M14116 23142c3,-96 -138,-179 -314,-183 -176,-5 -320,69 -323,165 -3,97 138,179 314,184 176,5 320,-69 323,-166"/>
   <path class="fil0 str0" d="M21322 22336c0,-209 -169,-379 -378,-379 -208,0 -378,170 -378,379 0,208 170,378 378,378 209,0 378,-170 378,-378"/>
   <path class="fil1" d="M10923 7596l11 0 3289 3287c7,7 7,18 0,25l-3281 3283c-6,6 -16,6 -21,0l-3275 -3277c-10,-9 -10,-25 0,-35l3277 -3283zm2260 3300c0,-1244 -1008,-2252 -2252,-2252 -1243,0 -2252,1008 -2252,2252 0,1244 1009,2252 2252,2252 1244,0 2252,-1008 2252,-2252z"/>
   <path class="fil2" d="M13183 10896c0,1244 -1008,2252 -2252,2252 -1243,0 -2252,-1008 -2252,-2252 0,-1244 1009,-2252 2252,-2252 1244,0 2252,1008 2252,2252zm-2283 -2179l-1881 3249c-5,9 2,20 12,20l3779 0c5,0 8,-6 5,-10 -667,-1157 -1271,-2201 -1813,-3131 -26,-44 -49,-87 -67,-127 -7,-14 -27,-15 -35,-1z"/>
   <path class="fil1" d="M9019 11966l1881 -3249c8,-14 28,-13 35,1 18,40 41,83 67,127 542,930 1146,1974 1813,3131 3,4 0,10 -5,10l-3779 0c-10,0 -17,-11 -12,-20z"/>
   <path class="fil3" d="M2296 14822c0,350 -283,634 -633,634 -350,0 -634,-284 -634,-634 0,-350 284,-633 634,-633 350,0 633,283 633,633z"/>
   <path class="fil1" d="M3307 16703l-624 -1c-22,0 -34,-11 -35,-33 -2,-23 10,-46 35,-71 465,-462 932,-921 1401,-1377 2,-2 7,0 7,4l-1 764c0,14 7,21 22,21l1174 2c16,0 24,8 24,24l-1 661c0,3 -3,6 -6,6l-1193 -1c-10,0 -19,9 -19,20 0,641 0,1266 0,1874 0,342 127,632 502,651 308,16 629,-105 903,-271 6,-3 13,1 13,7 -2,212 -2,437 0,676 0,14 -5,25 -15,34 -9,7 -17,14 -27,19 -261,142 -551,217 -870,225 -252,6 -472,-36 -657,-127 -359,-176 -556,-456 -593,-841 -13,-146 -22,-290 -22,-438 0,-660 0,-1263 0,-1809 0,-13 -6,-19 -18,-19z"/>
   <path class="fil1" d="M6629 18031c0,34 9,71 13,106 92,678 580,1077 1248,1074 492,-2 949,-157 1369,-464 6,-3 13,0 13,7l0 721c0,12 -4,21 -14,28 -331,222 -678,355 -1039,399 -356,43 -724,45 -1067,-46 -251,-67 -488,-211 -674,-392 -342,-336 -542,-747 -599,-1233 -43,-367 -15,-753 105,-1102 170,-497 555,-934 1060,-1096 396,-128 786,-132 1170,-12 418,130 743,460 925,859 160,350 204,735 201,1121 0,7 -6,12 -13,12l-2680 0c-10,0 -18,8 -18,18zm59 -660c-9,33 -23,73 -23,107 -1,13 -4,25 -11,34 -17,25 -10,37 19,37l1893 0c6,0 10,-6 10,-12 -35,-570 -367,-947 -957,-931 -480,14 -807,314 -931,765z"/>
   <path class="fil1" d="M10930 16473c9,2 19,-1 25,-8 402,-439 979,-650 1548,-459 433,145 738,493 826,950 43,218 59,434 58,666 -2,749 -2,1493 -1,2233 0,12 -5,18 -17,18l-734 0c-9,0 -16,-7 -16,-16 1,-774 1,-1542 -2,-2304 -1,-234 -41,-441 -121,-623 -138,-313 -500,-382 -804,-339 -316,44 -587,260 -759,520 -5,7 -7,16 -7,24l0 2717c0,14 -7,21 -21,21l-754 0c-4,0 -8,-3 -8,-7l0 -3836c0,-13 7,-20 20,-20l745 1c9,0 16,7 17,16 1,158 1,302 -2,433 0,8 2,13 7,13z"/>
   <path class="fil1" d="M16087 19568c-385,305 -1031,506 -1489,244 -305,-175 -470,-480 -464,-836 10,-534 453,-893 933,-1064 332,-119 678,-239 1039,-359 7,-2 11,-7 11,-14 5,-124 0,-242 -15,-355 -82,-643 -816,-603 -1248,-391 -210,104 -415,264 -613,480 -22,25 -34,20 -34,-13l1 -782c0,-13 4,-26 13,-36 341,-388 834,-521 1342,-505 428,14 847,161 1094,512 177,251 208,490 209,781 0,684 0,1331 1,1941 0,107 38,245 181,206 123,-33 246,-98 370,-194 6,-5 15,0 15,8l2 444c0,8 -4,15 -10,19 -119,82 -241,151 -366,206 -158,70 -331,93 -520,67 -228,-30 -370,-147 -428,-351 -3,-10 -16,-15 -24,-8zm-670 -1322c-157,69 -339,179 -435,322 -105,159 -111,401 -21,560 74,128 173,210 300,245 279,78 572,-26 792,-214 26,-23 65,-39 65,-81 0,-364 0,-731 -1,-1100 0,-5 -4,-8 -9,-6 -248,90 -478,181 -691,274z"/>
   <path class="fil1" d="M20321 17006c-255,-153 -533,-293 -812,-364 -225,-57 -529,-68 -696,112 -174,185 -23,399 135,517 105,77 210,144 314,201 556,302 1316,720 1265,1466 -40,590 -568,940 -1112,989 -367,33 -732,-7 -1077,-147 -139,-56 -275,-115 -408,-177 -10,-5 -15,-13 -15,-24l-1 -795c0,-10 12,-16 20,-10 298,211 607,364 924,457 255,75 535,61 744,-111 88,-73 129,-163 122,-269 -7,-98 -41,-177 -102,-236 -79,-77 -170,-146 -273,-205 -306,-178 -620,-350 -902,-565 -312,-237 -532,-553 -505,-964 34,-517 446,-839 934,-920 491,-82 1012,46 1451,289 7,4 12,11 12,20l-1 726c0,13 -6,16 -17,10z"/>
   <path class="fil1" d="M2101 19866c0,4 -3,7 -7,7l-752 0c-4,0 -7,-3 -7,-7l0 -3848c0,-4 3,-7 7,-7l752 0c4,0 7,3 7,7l0 3848z"/>
   <path class="fil1" d="M-2440 22904l0 -1741 229 -3c12,-1 22,9 22,22l0 1705c0,10 -5,14 -14,15l-237 2z"/>
   <path class="fil1" d="M5658 21408c-3,-15 -17,-27 -33,-27l-546 -2c-6,0 -9,-2 -9,-8l1 -197c0,-9 4,-14 13,-14l1432 -2c4,0 7,3 7,8l0 208c0,5 -3,8 -8,8l-563 -1c-21,0 -32,10 -32,32l0 1485c0,4 -2,6 -6,6l-243 2c-4,0 -7,-3 -7,-7 -1,-465 0,-932 1,-1401 0,-32 -2,-62 -7,-90z"/>
   <path class="fil1" d="M7792 22889c0,9 -7,17 -16,17l-197 0c-9,0 -16,-8 -16,-17l0 -1713c0,-9 7,-17 16,-17l197 0c9,0 16,8 16,17l0 1713z"/>
   <path class="fil1" d="M11697 22893c0,7 -5,13 -12,13l-205 0c-6,0 -12,-6 -12,-13l0 -1721c0,-7 6,-12 12,-12l205 0c7,0 12,5 12,12l0 1721z"/>
   <path class="fil1" d="M16054 22905l-224 0c-5,0 -9,-4 -9,-8l0 -1730c0,-4 3,-8 8,-8l194 -1c2,0 4,2 6,3l1150 1324c4,6 14,2 14,-5l0 -1313c0,-5 4,-8 9,-8l224 0c4,0 8,3 8,8l0 1730c0,4 -3,8 -8,8l-206 0c-2,0 -5,-1 -6,-3l-1139 -1310c-5,-6 -14,-3 -14,5l2 1300c0,4 -4,8 -9,8z"/>
   <path class="fil1" d="M24393 21169l0 1737 -207 -2c-10,0 -15,-5 -15,-16l0 -1712c0,-10 7,-18 17,-17l205 10z"/>
   <path class="fil1" d="M1524 21409c0,76 -61,137 -137,137 -76,0 -137,-61 -137,-137 0,-76 61,-137 137,-137 76,0 137,61 137,137z"/>
   <path class="fil1" d="M14774 21409c0,75 -62,137 -137,137 -76,0 -137,-62 -137,-137 0,-76 61,-137 137,-137 75,0 137,61 137,137z"/>
   <path class="fil1" d="M20099 21409c0,75 -61,137 -137,137 -76,0 -137,-62 -137,-137 0,-76 61,-138 137,-138 76,0 137,62 137,138z"/>
   <path class="fil1" d="M706 21754l332 1c7,0 10,3 10,10l0 192c0,6 -3,10 -10,10l-329 0c-12,0 -22,10 -22,22 2,153 2,310 -1,470 -2,79 6,138 24,176 64,138 267,73 370,9 17,-10 25,-6 25,14l0 169c0,19 -8,33 -25,41 -197,95 -502,91 -597,-140 -21,-52 -31,-121 -31,-208 1,-173 2,-350 3,-531 0,-13 -12,-24 -25,-24l-156 2c-19,1 -28,-22 -15,-36l411 -403c7,-7 19,-1 19,9l-2 198c0,10 9,19 19,19z"/>
   <path class="fil1" d="M1844 21966l-161 1c-7,0 -14,-4 -18,-11 -4,-9 -4,-16 3,-22 136,-140 273,-274 409,-402 13,-13 20,-10 19,9l-3 193c0,13 7,20 20,20l322 0c13,0 19,6 19,19l1 175c0,13 -7,19 -19,19l-325 -1c-11,0 -16,6 -17,17 0,189 0,377 2,565 1,245 273,168 395,96 10,-6 23,2 23,13l-1 182c0,9 -6,18 -15,22 -218,106 -540,100 -621,-167 -12,-41 -18,-133 -16,-275 3,-139 3,-284 1,-435 0,-12 -6,-18 -18,-18z"/>
   <path class="fil1" d="M4216 21987c3,172 3,339 0,500 -3,125 27,239 179,228 83,-6 161,-33 235,-80 3,-1 6,0 6,3l-1 208c0,4 -2,6 -5,8 -143,77 -284,94 -422,49 -166,-53 -219,-180 -224,-349 -6,-183 -6,-373 -1,-569 0,-10 -7,-18 -17,-18l-167 0c-17,0 -25,-20 -13,-32l408 -401c15,-15 23,-12 23,10l1 195c0,11 5,17 16,17l322 -5c14,0 21,7 21,21l1 178c0,11 -6,16 -17,16l-325 1c-14,0 -21,6 -20,20z"/>
   <path class="fil1" d="M-1608 21857c-1,12 13,18 21,11 141,-126 318,-180 492,-97 205,99 224,305 222,513 -1,199 -1,403 3,609 0,8 -4,11 -11,11l-216 1c-7,0 -11,-3 -10,-11 0,-134 1,-343 3,-629 0,-148 -26,-325 -203,-338 -106,-7 -197,34 -273,124 -16,19 -24,41 -25,66 -2,261 -1,521 2,779 1,5 -2,7 -7,8l-228 2c-4,1 -7,-2 -7,-7l0 -1119c0,-18 9,-27 27,-27l184 2c25,0 36,13 33,37l-7 65z"/>
   <path class="fil1" d="M-314 21955c-124,63 -21,167 55,208 178,97 444,229 417,479 -17,150 -152,253 -294,276 -156,26 -312,-4 -469,-90 -10,-5 -16,-15 -16,-27l-1 -210c0,-11 12,-17 21,-11 124,90 345,208 482,96 104,-84 -32,-181 -98,-218 -207,-115 -460,-254 -385,-509 27,-94 95,-159 204,-194 149,-48 315,-25 495,67 4,2 7,6 7,11 2,135 1,210 -2,223 -1,1 -2,2 -3,1 -91,-57 -182,-96 -274,-118 -49,-12 -96,-6 -139,16z"/>
   <path class="fil1" d="M6520 22379c23,161 103,263 241,306 159,50 338,11 536,-115 1,0 3,0 3,1 1,71 0,143 -3,219 0,4 -2,7 -6,10 -205,140 -563,188 -782,19 -186,-144 -247,-372 -217,-606 41,-321 287,-518 616,-475 302,40 418,330 414,598 0,13 -7,20 -21,20l-761 0c-16,0 -22,8 -20,23zm17 -165l553 -4c2,0 4,-2 4,-4l0 -2c-1,-150 -126,-270 -280,-269l-5 0c-154,1 -277,123 -276,272l0 3c0,2 1,4 4,4z"/>
   <path class="fil1" d="M9011 21851c-3,34 7,39 31,15 156,-154 397,-187 566,-42 87,75 132,182 135,322 5,258 6,505 3,740 0,13 -7,19 -20,19l-196 0c-11,0 -19,-8 -19,-19 1,-214 1,-436 2,-665 0,-148 -45,-297 -225,-295 -97,1 -182,47 -256,138 -11,13 -16,28 -16,45 -2,259 -2,521 0,785 0,6 -5,11 -12,11l-219 0c-7,0 -10,-3 -10,-10l0 -1115c0,-18 9,-26 26,-26l183 1c25,0 36,12 34,37l-7 59z"/>
   <path class="fil1" d="M18272 22827c-4,-11 -10,-12 -19,-6 -169,132 -496,170 -564,-100 -53,-215 105,-346 289,-411 98,-34 189,-65 274,-93 9,-2 14,-9 15,-19 13,-128 -26,-206 -119,-236 -152,-48 -331,52 -429,166 -10,13 -16,11 -16,-6l1 -220c0,-12 4,-23 13,-33 123,-138 353,-163 519,-117 172,48 258,168 260,360 2,201 2,403 1,605 -1,26 23,44 48,38 34,-9 66,-25 95,-49 9,-8 22,-1 22,10l-1 106c0,11 -5,21 -13,27 -104,79 -318,136 -376,-22zm-187 -68c63,-5 120,-30 172,-75 7,-6 11,-16 11,-26l0 -301c0,-10 -5,-14 -14,-10 -90,29 -173,65 -250,108 -157,87 -105,320 81,304z"/>
   <path class="fil1" d="M19300 22681c72,-53 38,-142 -29,-182 -128,-78 -276,-150 -380,-260 -89,-93 -109,-247 -42,-352 142,-219 468,-175 672,-64 3,2 5,6 5,9 0,129 0,204 -2,223 0,2 -1,2 -1,2 -75,-45 -150,-81 -228,-107 -84,-28 -154,-21 -210,21 -99,72 38,172 103,206 158,82 356,192 390,376 40,213 -139,355 -336,371 -149,13 -292,-20 -428,-99 -4,-2 -6,-5 -6,-10 -3,-79 -4,-159 -1,-241 0,-1 0,-2 1,-1 131,91 349,213 492,108z"/>
   <path class="fil1" d="M22059 21871c275,-272 699,-129 707,272 5,243 5,493 2,751 0,7 -5,12 -11,12l-215 -1c-7,0 -12,-5 -12,-12 6,-290 6,-539 0,-745 -1,-56 -20,-107 -56,-153 -91,-116 -267,-72 -367,12 -34,29 -69,58 -69,107 0,277 0,539 0,784 0,4 -4,8 -9,8l-225 -2c-4,0 -6,-2 -6,-6l0 -1111c0,-22 11,-33 33,-33l173 0c27,0 38,13 35,39 -3,26 -2,50 4,73 2,12 8,13 16,5z"/>
   <path class="fil1" d="M23554 22827c-159,117 -418,158 -534,-46 -75,-131 -26,-291 90,-379 125,-94 304,-134 449,-186 11,-4 17,-12 17,-23 8,-124 -32,-201 -121,-231 -158,-55 -321,58 -427,162 -15,15 -22,12 -22,-9l4 -209c0,-20 9,-39 25,-51 144,-118 311,-153 500,-104 175,45 264,162 266,350 2,197 4,403 3,617 0,14 9,27 22,32 43,17 93,-27 131,-45 12,-6 18,-2 17,11l-4 109c0,8 -3,14 -10,19 -102,79 -312,144 -378,-9 -4,-11 -18,-15 -28,-8zm-193 -400c-314,135 -57,490 203,257 8,-7 11,-15 11,-25l1 -298c0,-9 -9,-16 -18,-12 -65,24 -131,49 -197,78z"/>
   <path class="fil1" d="M1502 22889c0,9 -7,17 -16,17l-197 0c-9,0 -16,-8 -16,-17l0 -1119c0,-9 7,-16 16,-16l197 0c9,0 16,7 16,16l0 1119z"/>
   <path class="fil1" d="M3404 22801c2,-28 -6,-32 -27,-13 -139,131 -334,185 -509,92 -177,-95 -203,-263 -201,-460 2,-218 1,-435 -1,-650 -1,-10 7,-18 17,-17l195 3c10,1 15,6 16,16 1,205 2,411 2,617 0,128 10,313 173,339 107,17 201,-15 281,-96 26,-26 50,-50 50,-90 -1,-255 -1,-510 -1,-766 0,-15 8,-23 23,-22l192 1c13,0 20,6 20,19l0 1105c0,18 -9,27 -26,26l-184 0c-20,0 -29,-10 -27,-31l7 -73z"/>
   <path class="fil1" d="M8664 22905l-288 0c-3,0 -6,-1 -8,-3l-566 -576c-4,-4 -4,-10 -1,-14l501 -554c3,-2 5,-4 8,-4l254 0c9,0 14,10 8,17l-471 542c-4,4 -4,10 0,14l570 560c6,7 2,18 -7,18z"/>
   <path class="fil1" d="M11223 22341c-1,327 -278,591 -620,591 -342,-1 -618,-267 -618,-594 1,-327 279,-591 620,-591 342,1 618,267 618,594zm-243 -5c0,-209 -169,-379 -378,-379 -209,0 -378,170 -378,379 0,208 169,378 378,378 209,0 378,-170 378,-378z"/>
   <path class="fil1" d="M13187 22337c1,327 -275,593 -616,594 -342,2 -620,-262 -621,-589 -2,-327 275,-593 616,-594 342,-2 620,262 621,589zm-246 67c37,-204 -100,-400 -307,-438 -207,-37 -404,98 -441,302 -38,204 100,400 307,437 207,38 404,-97 441,-301z"/>
   <path class="fil1" d="M13987 23476l-371 0c-174,-51 -354,-140 -350,-353 2,-148 87,-244 254,-289 18,-5 20,-13 6,-25 -35,-30 -86,-70 -88,-120 -4,-95 77,-132 150,-171 13,-7 13,-13 0,-19 -120,-58 -190,-146 -212,-267 -53,-288 163,-468 431,-477 82,-2 252,-2 512,-1 17,1 25,9 25,26l0 131c0,17 -9,26 -26,26l-170 -1c-11,0 -17,13 -9,22 111,125 126,260 43,406 -94,168 -270,189 -442,218 -27,5 -48,16 -65,34 -24,26 -20,68 9,88 32,23 69,38 109,47 107,22 211,48 313,78 137,40 237,145 237,294 0,209 -164,315 -356,353zm33 -1323c-5,-113 -107,-201 -229,-195 -123,5 -217,101 -212,214 5,114 107,201 229,196 123,-6 217,-102 212,-215zm96 989c3,-96 -138,-179 -314,-183 -176,-5 -320,69 -323,165 -3,97 138,179 314,184 176,5 320,-69 323,-166z"/>
   <path class="fil1" d="M14751 22893c0,7 -5,12 -12,12l-206 0c-6,0 -11,-5 -11,-12l0 -1127c0,-7 5,-12 11,-12l206 0c7,0 12,5 12,12l0 1127z"/>
   <path class="fil1" d="M20075 22893c0,7 -6,13 -13,13l-202 0c-7,0 -13,-6 -13,-13l0 -1126c0,-7 6,-13 13,-13l202 0c7,0 13,6 13,13l0 1126z"/>
   <path class="fil1" d="M21564 22336c2,327 -274,594 -615,596 -342,2 -620,-262 -622,-589 -2,-327 274,-594 616,-596 341,-2 619,262 621,589zm-242 0c0,-209 -169,-379 -378,-379 -208,0 -378,170 -378,379 0,208 170,378 378,378 209,0 378,-170 378,-378z"/>
  </g>
 </g>
</svg>
